<svg width="150px" height="40px" viewBox="0 0 150 40" version="1.1" xmlns="http://www.w3.org/2000/svg" xmlns:xlink="http://www.w3.org/1999/xlink">
    <g id="Page-1" stroke="none" stroke-width="1" fill="none" fill-rule="evenodd">
        <path d="M57.5744681,17.9448303 C58.838938,18.1174249 60.0091925,18.0947795 61.160232,17.80957 C61.5302754,17.7171523 61.89536,17.5139559 62.2027998,17.2838297 C62.9614817,16.717083 63.2980539,15.7127294 63.0377217,14.955639 C62.7209845,14.0357465 61.9399884,13.7860352 61.0926696,13.7370722 C60.1486561,13.6819888 59.199064,13.7242194 58.1484383,13.7242194 C57.9531892,15.1606715 57.7678576,16.5230671 57.5744681,17.9448303 L57.5744681,17.9448303 Z M57.1071101,21.4891396 C56.8907866,23.1685706 56.6949177,24.6864238 56.4940902,26.2446713 C57.7783949,26.2446713 58.9275748,26.2930222 60.0693168,26.2220259 C60.5720055,26.190812 61.0976283,25.9839433 61.5463911,25.7379042 C62.4042472,25.2672474 62.8864812,24.1453825 62.7166456,23.2383429 C62.5585869,22.3980154 61.9381289,21.837389 60.7976266,21.707025 C59.6298515,21.5736009 58.4472003,21.5625841 57.1071101,21.4891396 L57.1071101,21.4891396 Z M53.6242394,9.64254111 C57.1040109,9.71659765 60.4226245,9.77963751 63.7406182,9.86593481 C64.1280171,9.87633945 64.5197549,9.99017843 64.8966165,10.0985091 C68.349735,11.0930701 69.4251542,14.776312 66.9854711,17.4123576 C66.311707,18.1400702 65.4284376,18.6780512 64.5916561,19.343336 C64.7323594,19.408212 64.9170711,19.4957334 65.1042622,19.5789705 C67.5619206,20.6671732 68.5059342,22.6954656 67.7267976,25.2372575 C66.9724545,27.6976484 65.2003372,29.143281 62.8003237,29.8667094 C61.8680872,30.1470226 60.8658088,30.3030921 59.8914232,30.3239015 C57.0947134,30.3838811 54.2949043,30.3471589 51.4969548,30.3434866 C51.3072843,30.3434866 51.1182337,30.3061524 50.8064551,30.2737144 C51.7436504,23.4127736 52.6727878,16.6099764 53.6242394,9.64254111 Z M110.191291,15.6068469 C112.126426,15.2757346 113.592963,15.9293907 114.508464,17.6167782 C114.766937,17.3603344 115.004955,17.1179676 115.25041,16.8835572 C116.697113,15.4991283 118.428941,14.9782843 120.407464,15.2647179 C121.668215,15.4477171 122.620286,16.0536343 123.06409,17.2979066 C123.10376,17.4092974 123.205414,17.499879 123.305208,17.6375874 C123.535168,17.3842039 123.7174,17.158362 123.925666,16.9588378 C125.628981,15.3265337 127.66143,14.8344555 129.932517,15.3938578 C131.321575,15.7365989 132.255671,16.9098748 132.309597,18.413651 C132.349886,19.5422482 132.253811,20.6843102 132.120546,21.8092353 C131.810007,24.4232476 131.441203,27.0299155 131.092235,29.6390315 C131.066201,29.8312112 131.004837,30.0184947 130.944093,30.2755505 L126.173199,30.2755505 C126.28229,29.3599424 126.372787,28.4963574 126.489936,27.6370566 C126.779401,25.5114504 127.081882,23.3882921 127.375685,21.2639099 C127.397999,21.102944 127.39614,20.9395299 127.399859,20.776728 C127.414735,20.0949181 127.314941,19.4369778 126.600887,19.1334072 C125.853982,18.8157597 125.110176,18.9118496 124.463685,19.4173926 C123.661614,20.0453431 123.37091,20.9419781 123.240744,21.8943085 C122.894255,24.4385485 122.56636,26.9846246 122.22421,29.5294767 C122.190738,29.7804121 122.112019,30.0258391 122.048796,30.2963597 L117.294017,30.2963597 C117.392571,29.4419554 117.470051,28.6456945 117.578523,27.853718 C117.872946,25.6962856 118.181005,23.5406895 118.480387,21.3844813 C118.50704,21.1910774 118.518197,20.9952254 118.521916,20.8005974 C118.535553,20.1212357 118.438858,19.4596232 117.739061,19.1407516 C117.036164,18.821268 116.32335,18.9069533 115.680578,19.3482323 C115.02045,19.8017521 114.674581,20.4768295 114.533258,21.2216793 C114.297099,22.4653395 114.122925,23.7206285 113.947511,24.9746934 C113.722509,26.5837401 113.524161,28.196459 113.306598,29.8067297 C113.285523,29.9634114 113.214242,30.1133605 113.154118,30.3030921 L108.439009,30.3030921 C109.023516,25.4000595 109.602445,20.5466019 110.191291,15.6068469 Z M89.9969635,30.3024801 L85.1585066,30.3024801 C85.3673921,28.7124066 85.5657404,27.1755804 85.7709067,25.6399782 C85.972974,24.1245732 86.2140911,22.6140646 86.3795879,21.0949875 C86.5655394,19.3782222 85.578757,18.6670346 83.8444497,19.0789358 C82.7932041,19.3286471 82.1491924,20.1120551 81.9006372,21.1072282 C81.625429,22.2064476 81.4766679,23.3387171 81.3136505,24.462418 C81.0762524,26.1032906 80.8772844,27.7502836 80.6553822,29.3942165 C80.6169524,29.680038 80.5444312,29.9609632 80.4774887,30.2920755 L75.734487,30.2920755 C76.3196142,25.4000595 76.9035019,20.517224 77.4892489,15.6239839 C79.3611602,15.2414605 80.8853422,15.9367351 81.9254307,17.8346635 C82.1305971,17.532317 82.2601434,17.256288 82.4640701,17.0549277 C84.1661457,15.3742726 86.2202895,14.8491444 88.5422032,15.3577476 C90.1990307,15.7206859 91.2961442,17.1008305 91.3612272,18.9247024 C91.3903597,19.7307558 91.2918054,20.5466019 91.1882925,21.3502071 C90.8083316,24.3136929 90.4023376,27.2735064 89.9969635,30.3024801 Z M92.415572,24.1545631 C92.3938778,22.8735685 92.6399535,21.6397009 93.1246669,20.451736 C94.740585,16.490017 98.2358525,14.8834185 102.200957,15.2218753 C103.256542,15.3118448 104.279275,15.55972 105.192296,16.1221825 C106.885075,17.1657065 107.736732,18.7331346 107.881154,20.6482001 C108.153883,24.2714622 107.036935,27.3549074 103.854686,29.3911562 C101.513557,30.8888121 98.8897817,31.066303 96.269106,30.2057782 C93.7569019,29.3813636 92.6740446,27.4222315 92.4192911,24.9336869 C92.392638,24.6766311 92.415572,24.414679 92.415572,24.1545631 Z M100.836693,18.5911419 C99.5864799,18.5476872 98.7162271,19.1077016 98.2470096,20.1273561 C97.4709723,21.8116834 97.1827475,23.6129099 97.4771706,25.4459622 C97.7102297,26.8989394 98.8990794,27.545251 100.346402,27.13641 C101.154051,26.90812 101.759633,26.4099214 102.085667,25.6595634 C102.823275,23.9599351 103.135053,22.1758457 102.888978,20.336673 C102.732778,19.1670692 101.978435,18.5990984 100.836693,18.5911419 Z M148.937996,21.6329685 C148.813408,24.5878856 147.897287,27.2129146 145.405538,29.0233218 C142.862342,30.871063 140.006127,31.131791 137.060656,30.1311096 C135.211059,29.5025471 134.053202,28.114446 133.655885,26.2544639 C132.902782,22.7272916 133.697414,19.5398001 136.502802,17.1461213 C139.175544,14.8650574 142.355934,14.5865803 145.577853,15.8406452 C147.875593,16.7354441 148.740267,18.7306865 148.935516,21.0484726 C148.951632,21.2418765 148.937996,21.4383405 148.937996,21.6329685 Z M144.05739,21.7523157 C143.952017,20.4156257 143.915447,19.4284093 142.956557,18.8836958 C142.054073,18.3701964 141.088365,18.4430288 140.249104,19.0116117 C139.809639,19.309674 139.394967,19.7687021 139.185462,20.2479275 C138.439796,21.9469437 138.210456,23.7487822 138.487524,25.5806105 C138.648682,26.6461679 139.393727,27.1908814 140.497039,27.2257675 C141.742294,27.2649379 142.768746,26.6584086 143.199534,25.3566049 C143.624743,24.071938 143.834868,22.717499 144.05739,21.7523157 Z M73.4609206,30.2890154 L68.6323813,30.2890154 C69.223087,25.3725178 69.8057349,20.5208962 70.3983001,15.5829774 L75.4109315,15.5829774 C74.7594816,20.4945786 74.1136102,25.3657854 73.4609206,30.2890154 Z M76.1485389,11.0777691 C75.9904802,12.6403009 74.6751836,13.7903195 73.210506,13.6458786 C71.7452085,13.5020498 70.6852852,12.1182329 70.843344,10.5557011 C71.0007829,8.99316929 72.3160795,7.84315076 73.7813769,7.98759161 C75.2460545,8.13142043 76.3059779,9.5152373 76.1485389,11.0777691 Z" class="logo-text" fill="#FFFFFF" fill-rule="nonzero"></path>
        <path d="M19.98026,0 C31.0366864,0 40,8.96331365 40,20.01974 C40,30.6474477 31.7193263,39.3408346 21.2584735,40 L18.7019714,40 C8.66319495,39.3674666 0.63253337,31.336805 0,21.2980286 L3.57525356e-15,18.7415265 C0.659165418,8.28067372 9.35255225,0 19.98026,0 Z M7.17010556,27.639838 C8.68618948,28.5240486 10.6595259,28.0226721 11.555006,26.525668 L20.2965975,11.9138462 C21.1920776,10.4168421 20.6843109,8.46834008 19.168227,7.58412955 C17.6521431,6.69991902 15.6788068,7.20129555 14.7833266,8.6982996 L6.04239105,23.3101215 C5.14691094,24.8071255 5.65467769,26.7556275 7.17010556,27.639838 Z M21.9163341,17.8889069 C23.4324181,18.7731174 25.4057545,18.2717409 26.3012346,16.7747369 L29.2094129,11.9138462 C30.104893,10.4168421 29.5971263,8.46834008 28.0810423,7.58412955 C26.5649584,6.69991902 24.592278,7.20129555 23.6961419,8.6982996 L20.7879636,13.559838 C19.8924835,15.0561944 20.4002503,17.0046964 21.9163341,17.8889069 Z M33.7571706,19.3872065 C34.6526508,17.8902024 34.144884,15.9423481 32.6288001,15.0581376 C31.1127163,14.1732794 29.1400359,14.6746559 28.2445558,16.1716599 L24.1548685,23.0076114 C23.2593884,24.5046154 23.7671551,26.4524696 25.283239,27.3373279 C26.799323,28.2208908 28.7726594,27.720162 29.6681395,26.2231579 L33.7571706,19.3872065 Z" class="logo-coin" fill="#FFDD47"></path>
    </g>
</svg>
